<?xml version="1.0" encoding="UTF-8" standalone="no"?>
<!-- Created with Inkscape (http://www.inkscape.org/) -->

<svg
   xmlns:dc="http://purl.org/dc/elements/1.1/"
   xmlns:cc="http://creativecommons.org/ns#"
   xmlns:rdf="http://www.w3.org/1999/02/22-rdf-syntax-ns#"
   xmlns:svg="http://www.w3.org/2000/svg"
   xmlns="http://www.w3.org/2000/svg"
   xmlns:xlink="http://www.w3.org/1999/xlink"
   xmlns:sodipodi="http://sodipodi.sourceforge.net/DTD/sodipodi-0.dtd"
   xmlns:inkscape="http://www.inkscape.org/namespaces/inkscape"
   width="210mm"
   height="297mm"
   viewBox="0 0 210 297"
   version="1.1"
   id="svg8"
   inkscape:version="0.92.3 (2405546, 2018-03-11)"
   sodipodi:docname="Warzycki_logo.svg">
  <defs
     id="defs2" />
  <sodipodi:namedview
     id="base"
     pagecolor="#ffffff"
     bordercolor="#666666"
     borderopacity="1.0"
     inkscape:pageopacity="0.0"
     inkscape:pageshadow="2"
     inkscape:zoom="0.70710678"
     inkscape:cx="414.47669"
     inkscape:cy="554.50992"
     inkscape:document-units="mm"
     inkscape:current-layer="layer1"
     showgrid="false"
     showguides="true"
     inkscape:guide-bbox="true"
     inkscape:window-width="1366"
     inkscape:window-height="706"
     inkscape:window-x="-8"
     inkscape:window-y="-8"
     inkscape:window-maximized="1">
    <sodipodi:guide
       position="88.370831,149.75417"
       orientation="0,1"
       id="guide841"
       inkscape:locked="false" />
    <sodipodi:guide
       position="101.07083,313.26668"
       orientation="1,0"
       id="guide843"
       inkscape:locked="false" />
  </sodipodi:namedview>
  <metadata
     id="metadata5">
    <rdf:RDF>
      <cc:Work
         rdf:about="">
        <dc:format>image/svg+xml</dc:format>
        <dc:type
           rdf:resource="http://purl.org/dc/dcmitype/StillImage" />
        <dc:title />
      </cc:Work>
    </rdf:RDF>
  </metadata>
  <g
     inkscape:label="Layer 1"
     inkscape:groupmode="layer"
     id="layer1">
    <path
       style="opacity:1;vector-effect:none;fill:#d80c00;fill-opacity:0.89417988;fill-rule:evenodd;stroke:none;stroke-width:8.51288986;stroke-linecap:butt;stroke-linejoin:miter;stroke-miterlimit:4;stroke-dasharray:none;stroke-dashoffset:0;stroke-opacity:1;paint-order:normal"
       d="M 101.07083,73.551623 A 70.743553,70.743553 0 0 0 30.346463,143.91115 c 8.200456,-6.1216 15.80548,-10.5436 22.813594,-13.26121 7.488298,-2.95599 15.267903,-4.43435 23.338626,-4.43435 9.152366,0 19.844154,2.53417 32.075047,7.6016 l 1.87223,0.75965 c 0.66563,0.25337 1.58073,0.5916 2.74557,1.01389 12.89652,5.23634 23.25555,7.8543 31.07666,7.8543 7.15549,0 14.22771,-1.60481 21.21679,-4.81418 1.85358,-0.84114 3.75999,-1.81893 5.71645,-2.92695 a 70.743553,70.743553 0 0 0 -70.1306,-62.152277 z"
       id="path953"
       inkscape:connector-curvature="0" />
    <path
       style="opacity:1;vector-effect:none;fill:#201271;fill-opacity:0.89417988;fill-rule:evenodd;stroke:none;stroke-width:8.51288986;stroke-linecap:butt;stroke-linejoin:miter;stroke-miterlimit:4;stroke-dasharray:none;stroke-dashoffset:0;stroke-opacity:1;paint-order:normal"
       d="m 73.628057,147.24583 c -7.321891,0 -14.5605,1.64696 -21.715987,4.94078 -5.906346,2.64911 -12.153323,6.59638 -18.739939,11.83494 a 70.743553,70.743553 0 0 0 67.898699,51.01704 70.743553,70.743553 0 0 0 69.47224,-57.60733 c -2.01862,0.99595 -3.99667,1.86754 -5.93194,2.60966 -7.40509,2.87154 -15.14284,4.30722 -23.21357,4.30722 -9.15236,0 -19.8023,-2.4915 -31.94998,-7.47447 -0.91524,-0.33783 -1.58128,-0.59125 -1.9973,-0.76016 -0.58242,-0.25338 -1.49752,-0.59109 -2.74557,-1.01338 -12.896513,-5.23634 -23.255538,-7.8543 -31.076653,-7.8543 z"
       id="path839"
       inkscape:connector-curvature="0" />
    <g
       aria-label="~"
       transform="matrix(1.317916,0,0,1.3024618,1011.8093,-841.33546)"
       style="font-style:normal;font-weight:normal;font-size:192px;line-height:1.25;font-family:sans-serif;letter-spacing:0px;word-spacing:0px;fill:none;fill-opacity:0.2645503;stroke:#090003;stroke-width:1.22348893;stroke-miterlimit:4;stroke-dasharray:none;stroke-opacity:0.82539685"
       id="flowRoot925" />
    <path
       style="fill:none;stroke:none;stroke-width:0.3121897px;stroke-linecap:butt;stroke-linejoin:miter;stroke-opacity:1"
       d="M 31.675422,277.77146 C 113.80246,230.17125 138.88787,300.64233 222.92789,271.18117"
       id="path828"
       inkscape:connector-curvature="0"
       sodipodi:nodetypes="cc" />
    <text
       xml:space="preserve"
       style="font-style:normal;font-weight:normal;font-size:35.42684937px;line-height:1.25;font-family:sans-serif;letter-spacing:0px;word-spacing:0px;fill:#000000;fill-opacity:1;stroke:none;stroke-width:0.88567126"
       id="text865"
       transform="matrix(0.68254691,0,0,0.72612124,17.191094,-41.558346)"><textPath
         xlink:href="#path828"
         id="textPath867"><tspan
   style="stroke-width:0.88567126"
   id="tspan863"><tspan
     style="stroke-width:0.88567126"
     id="tspan861"
     y="369.16309"
     x="17.687773">Kamil WarzYyvki</tspan></tspan></textPath></text>
  </g>
</svg>
